<svg width="27" height="27" viewBox="0 0 27 27" fill="none" xmlns="http://www.w3.org/2000/svg">
<path d="M13.5 8.0918C10.5073 8.0918 8.09211 10.507 8.09211 13.4997C8.09211 16.4924 10.5073 18.9076 13.5 18.9076C16.4927 18.9076 18.9079 16.4924 18.9079 13.4997C18.9079 10.507 16.4927 8.0918 13.5 8.0918ZM13.5 17.0145C11.5647 17.0145 9.98527 15.4351 9.98527 13.4997C9.98527 11.5644 11.5647 9.98496 13.5 9.98496C15.4354 9.98496 17.0148 11.5644 17.0148 13.4997C17.0148 15.4351 15.4354 17.0145 13.5 17.0145ZM19.1294 6.60996C18.4307 6.60996 17.8664 7.17422 17.8664 7.87295C17.8664 8.57168 18.4307 9.13594 19.1294 9.13594C19.8281 9.13594 20.3924 8.57432 20.3924 7.87295C20.3926 7.70704 20.3601 7.54271 20.2967 7.38938C20.2333 7.23605 20.1403 7.09674 20.0229 6.97942C19.9056 6.8621 19.7663 6.76908 19.613 6.70568C19.4597 6.64228 19.2953 6.60976 19.1294 6.60996ZM24.0416 13.4997C24.0416 12.0442 24.0548 10.602 23.9731 9.14912C23.8913 7.46162 23.5064 5.96397 22.2724 4.72998C21.0358 3.49336 19.5407 3.11104 17.8532 3.0293C16.3978 2.94756 14.9555 2.96075 13.5027 2.96075C12.0472 2.96075 10.6049 2.94756 9.15207 3.0293C7.46457 3.11104 5.96691 3.496 4.73293 4.72998C3.49631 5.9666 3.11398 7.46162 3.03224 9.14912C2.95051 10.6046 2.96369 12.0469 2.96369 13.4997C2.96369 14.9525 2.95051 16.3975 3.03224 17.8503C3.11398 19.5378 3.49894 21.0355 4.73293 22.2694C5.96955 23.5061 7.46457 23.8884 9.15207 23.9701C10.6075 24.0519 12.0498 24.0387 13.5027 24.0387C14.9581 24.0387 16.4004 24.0519 17.8532 23.9701C19.5407 23.8884 21.0384 23.5034 22.2724 22.2694C23.509 21.0328 23.8913 19.5378 23.9731 17.8503C24.0574 16.3975 24.0416 14.9552 24.0416 13.4997ZM21.7213 19.7171C21.5288 20.197 21.2968 20.5556 20.925 20.9247C20.5532 21.2965 20.1973 21.5285 19.7174 21.721C18.3305 22.2721 15.0372 22.1481 13.5 22.1481C11.9628 22.1481 8.66691 22.2721 7.28 21.7236C6.80012 21.5312 6.44152 21.2991 6.07238 20.9273C5.7006 20.5556 5.46857 20.1996 5.27609 19.7197C4.72766 18.3302 4.85158 15.0369 4.85158 13.4997C4.85158 11.9625 4.72766 8.6666 5.27609 7.27969C5.46857 6.79981 5.7006 6.44121 6.07238 6.07207C6.44416 5.70293 6.80012 5.46826 7.28 5.27578C8.66691 4.72735 11.9628 4.85127 13.5 4.85127C15.0372 4.85127 18.3331 4.72735 19.72 5.27578C20.1999 5.46826 20.5585 5.7003 20.9277 6.07207C21.2994 6.44385 21.5315 6.79981 21.7239 7.27969C22.2724 8.6666 22.1485 11.9625 22.1485 13.4997C22.1485 15.0369 22.2724 18.3302 21.7213 19.7171Z" fill="#202020"/>
</svg>
