<svg width="25" height="15" viewBox="0 0 25 15" fill="none" xmlns="http://www.w3.org/2000/svg">
<path fill-rule="evenodd" clip-rule="evenodd" d="M24.4271 1.19575C24.6 0.627002 24.4271 0.208252 23.599 0.208252H20.8646C20.1687 0.208252 19.8479 0.56971 19.674 0.968669C19.674 0.968669 18.2833 4.29784 16.3135 6.46034C15.676 7.08742 15.3865 7.28638 15.0385 7.28638C14.8646 7.28638 14.6031 7.08742 14.6031 6.51763V1.19575C14.6031 0.512419 14.4115 0.208252 13.8323 0.208252H9.53229C9.09792 0.208252 8.83646 0.524919 8.83646 0.82596C8.83646 1.47284 9.82187 1.62284 9.92292 3.44367V7.39992C9.92292 8.26763 9.76354 8.42492 9.41562 8.42492C8.48854 8.42492 6.23333 5.08013 4.89479 1.25304C4.63542 0.508252 4.37292 0.208252 3.67396 0.208252H0.9375C0.15625 0.208252 0 0.56971 0 0.968669C0 1.67909 0.927083 5.20825 4.31771 9.87596C6.57812 13.0635 9.76042 14.7916 12.6594 14.7916C14.3979 14.7916 14.6125 14.4083 14.6125 13.7468V11.3374C14.6125 10.5697 14.7771 10.4166 15.3281 10.4166C15.7344 10.4166 16.4292 10.6166 18.0521 12.153C19.9062 13.9749 20.2115 14.7916 21.2552 14.7916H23.9896C24.7708 14.7916 25.1625 14.4083 24.9375 13.6499C24.6896 12.8958 23.8042 11.801 22.6302 10.502C21.9927 9.76242 21.0365 8.96554 20.7458 8.56659C20.3406 8.05513 20.4562 7.827 20.7458 7.37179C20.7458 7.37179 24.0792 2.76138 24.426 1.19575H24.4271Z" fill="#202020"/>
</svg>
